<?xml version="1.0" encoding="utf-8"?>
<!DOCTYPE svg PUBLIC "-//W3C//DTD SVG 1.1//EN"
        "http://www.w3.org/Graphics/SVG/1.1/DTD/svg11.dtd">
<svg
        xmlns="http://www.w3.org/2000/svg"
        width="800px"
        height="800px"
        viewBox="0 0 64 64"
        fill="none">

    <path
            d="M21,42c5.071,0,9.728-1.808,13.361-4.811L38.172,41l-1.586,1.586c-0.781,0.781-0.781,2.047,0,2.828l18,18
       C54.977,63.805,55.488,64,56,64s1.023-0.195,1.414-0.586l6-6c0.781-0.781,0.781-2.047,0-2.828l-18-18
       c-0.781-0.781-2.047-0.781-2.828,0L41,38.172l-3.811-3.811C40.192,30.728,42,26.071,42,21C42,9.42,32.579,0,21,0S0,9.42,0,21
       S9.421,42,21,42z
       M59.172,56L56,59.171L40.828,44L44,40.829L59.172,56z
       M21,4c9.374,0,17,7.626,17,17s-7.626,17-17,17S4,30.374,4,21S11.626,4,21,4z"
            fill="white"/>

    <g stroke="white" stroke-width="2" stroke-linecap="round" stroke-linejoin="round" fill="none">
        <path d="M28.5 17.5a8.5 8.5 0 1 1-4.2-4.6"/>
        <path d="M28.5 17.5l2.8 2.6"/>
        <path d="M28.5 17.5l-1.4 3.2"/>
    </g>
</svg>
